<?xml version="1.0" encoding="utf-8"?>
<!-- Generator: Adobe Illustrator 25.4.1, SVG Export Plug-In . SVG Version: 6.00 Build 0)  -->
<svg version="1.0" id="圖層_1" xmlns="http://www.w3.org/2000/svg" xmlns:xlink="http://www.w3.org/1999/xlink" x="0px" y="0px"
	 viewBox="0 0 74 26" style="enable-background:new 0 0 74 26;" xml:space="preserve">
<g>
	<path d="M4.46,8.84c0.09-0.45,0.33-0.81,0.7-1.08c0.3-0.2,0.61-0.3,0.94-0.3c0.09,0,0.2,0.01,0.3,0.02c0.45,0.08,0.8,0.3,1.05,0.68
		C7.63,8.42,7.71,8.7,7.71,8.98c0,0.12-0.02,0.26-0.07,0.4c-0.84,3.3-1.8,5.88-2.86,7.76c-0.22,0.38-0.55,0.61-0.98,0.7
		c-0.14,0.03-0.27,0.05-0.4,0.05c-0.3,0-0.58-0.08-0.84-0.23c-0.36-0.2-0.59-0.5-0.68-0.89c-0.03-0.12-0.05-0.25-0.05-0.38
		c0-0.27,0.07-0.52,0.21-0.75c0.5-0.86,0.95-1.88,1.34-3.05C3.82,11.35,4.18,10.1,4.46,8.84z M11.07,3.28
		c0-0.42,0.15-0.79,0.46-1.09s0.67-0.46,1.09-0.46s0.79,0.15,1.09,0.46s0.46,0.67,0.46,1.09v16.97c0,0.88-0.11,1.54-0.34,1.99
		s-0.61,0.79-1.14,1.01c-0.7,0.28-1.87,0.45-3.49,0.52c-0.03,0-0.05,0-0.07,0c-0.42,0-0.8-0.13-1.15-0.4
		c-0.38-0.28-0.65-0.65-0.82-1.1c-0.06-0.14-0.09-0.27-0.09-0.4c0-0.2,0.06-0.39,0.19-0.56c0.19-0.3,0.45-0.45,0.8-0.45h0.02
		c0.23,0,0.48,0.01,0.73,0.02c0.28,0,0.52,0,0.73,0c0.41,0,0.68-0.01,0.82-0.02c0.27,0,0.45-0.05,0.56-0.14s0.16-0.25,0.16-0.47
		V3.28z M17.44,9.33c-0.09-0.2-0.14-0.41-0.14-0.61c0-0.16,0.03-0.32,0.09-0.49c0.14-0.38,0.4-0.63,0.77-0.77
		c0.2-0.06,0.41-0.09,0.61-0.09s0.41,0.03,0.61,0.09c0.41,0.16,0.71,0.42,0.91,0.8c0.75,1.41,1.45,2.86,2.09,4.36
		c0.55,1.27,0.98,2.41,1.29,3.45c0.05,0.19,0.07,0.37,0.07,0.54c0,0.27-0.06,0.53-0.19,0.8c-0.23,0.44-0.58,0.74-1.03,0.91
		c-0.17,0.06-0.34,0.09-0.52,0.09c-0.22,0-0.44-0.05-0.66-0.16c-0.39-0.22-0.64-0.54-0.75-0.96c-0.27-1.05-0.66-2.21-1.17-3.49
		C18.82,12.25,18.16,10.77,17.44,9.33z" fill="#333333"/>
	<path d="M25.9,7.29c0-0.22,0.09-0.4,0.26-0.55s0.37-0.21,0.59-0.18C27,6.59,27.2,6.7,27.37,6.88s0.25,0.39,0.25,0.62
		c-0.02,1.98-0.24,3.67-0.68,5.06c-0.06,0.23-0.21,0.4-0.45,0.49s-0.46,0.09-0.68,0c-0.23-0.09-0.4-0.26-0.49-0.49
		c-0.05-0.14-0.07-0.27-0.07-0.4c0-0.11,0.02-0.22,0.05-0.33C25.64,10.68,25.84,9.16,25.9,7.29z M47.14,18.54
		c0,0.36-0.13,0.67-0.39,0.93s-0.56,0.39-0.9,0.39c-0.03,0-0.05,0.01-0.07,0.04s-0.02,0.05,0,0.08c0.61,0.73,1.16,1.46,1.64,2.18
		c0.12,0.2,0.19,0.41,0.19,0.61c0,0.09-0.02,0.2-0.05,0.3c-0.09,0.33-0.3,0.57-0.61,0.73c-0.17,0.09-0.36,0.14-0.56,0.14
		c-0.12,0-0.26-0.02-0.4-0.07c-0.33-0.11-0.59-0.31-0.77-0.61c-0.16-0.25-0.33-0.52-0.52-0.82c-0.22-0.3-0.33-0.62-0.33-0.96
		c0-0.14,0.02-0.29,0.07-0.45c0.12-0.5,0.42-0.86,0.89-1.08c0.02-0.02,0.02-0.04,0.01-0.06s-0.02-0.04-0.04-0.04h-3.23
		c-0.58,0-1.06-0.2-1.45-0.6s-0.59-0.88-0.59-1.44V9.87c0-0.17-0.04-0.32-0.12-0.45C39.81,9.22,39.67,9,39.5,8.77
		c-0.03-0.03-0.06-0.04-0.09-0.02s-0.05,0.04-0.05,0.07v4.71c0,0.56-0.2,1.04-0.6,1.44s-0.88,0.6-1.44,0.6h-0.3
		c-0.05,0-0.08,0.02-0.09,0.06s-0.01,0.07,0.02,0.11c0.33,0.33,0.98,1,1.95,2.02c0.23,0.25,0.37,0.55,0.4,0.89
		c0.02,0.05,0.02,0.09,0.02,0.14c0,0.3-0.09,0.57-0.26,0.82c-0.16,0.23-0.38,0.35-0.66,0.35s-0.51-0.12-0.68-0.35
		c-0.23-0.31-0.52-0.7-0.87-1.17c-0.02-0.03-0.04-0.04-0.08-0.02s-0.06,0.04-0.06,0.07v4.64c0,0.34-0.12,0.64-0.36,0.88
		s-0.54,0.36-0.88,0.36s-0.64-0.12-0.88-0.36s-0.36-0.54-0.36-0.88v-4.12c0-0.02-0.02-0.03-0.05-0.04s-0.05,0-0.05,0.04
		c-0.22,0.48-0.45,0.95-0.68,1.39s-0.48,0.86-0.73,1.23c-0.14,0.22-0.34,0.33-0.59,0.33c-0.03,0-0.07,0-0.12,0
		c-0.31-0.05-0.53-0.21-0.66-0.49c-0.12-0.3-0.19-0.59-0.19-0.89c0-0.09,0-0.19,0-0.28c0.06-0.41,0.22-0.78,0.47-1.12
		c0.7-0.95,1.32-2.09,1.85-3.4c0.02-0.05,0.01-0.09-0.01-0.13s-0.06-0.06-0.11-0.06c-0.45,0-0.84-0.16-1.17-0.48
		s-0.49-0.71-0.49-1.16V9.26c0-0.05-0.02-0.06-0.07-0.05c-0.17,0.06-0.34,0.04-0.49-0.06s-0.25-0.25-0.28-0.43
		c-0.09-0.58-0.23-1.16-0.4-1.76c-0.02-0.02-0.03-0.02-0.05-0.02S30.4,6.95,30.4,6.96v16.1c0,0.36-0.12,0.66-0.38,0.9
		s-0.55,0.36-0.89,0.36s-0.64-0.12-0.89-0.36s-0.38-0.54-0.38-0.9V3.19c0-0.34,0.12-0.64,0.38-0.88s0.55-0.36,0.89-0.36
		s0.64,0.12,0.89,0.36s0.38,0.54,0.38,0.88v2.62c0,0.05,0.02,0.09,0.07,0.13s0.09,0.05,0.14,0.04l0.94-0.3
		c0.08-0.03,0.12-0.09,0.12-0.16c0-0.33,0.11-0.61,0.34-0.83s0.5-0.34,0.83-0.34h1.15c0.16,0,0.23-0.08,0.23-0.23V3.21
		c0-0.34,0.12-0.64,0.36-0.88s0.54-0.36,0.88-0.36s0.64,0.12,0.88,0.36s0.36,0.54,0.36,0.88V4.1c0,0.16,0.08,0.23,0.23,0.23h1.2
		c0.31,0,0.58,0.11,0.81,0.34s0.34,0.5,0.34,0.82s-0.11,0.59-0.34,0.81s-0.5,0.33-0.81,0.33h-1.2c-0.16,0-0.23,0.08-0.23,0.23v1.41
		c0,0.16,0.08,0.23,0.23,0.23h2.23c0.08,0,0.09-0.02,0.05-0.07c-0.14-0.16-0.19-0.34-0.15-0.55s0.14-0.37,0.32-0.48
		c0.91-0.59,1.48-1.46,1.73-2.6C41.14,4.7,41.1,4.64,41,4.64h-0.38c-0.28,0-0.52-0.1-0.73-0.29s-0.3-0.44-0.3-0.73
		s0.1-0.54,0.3-0.74s0.45-0.3,0.73-0.3h4.8c0.56,0,1.04,0.2,1.43,0.61c0.36,0.38,0.54,0.83,0.54,1.36c0,1.91-0.18,3.1-0.54,3.59
		c-0.31,0.38-0.73,0.62-1.27,0.73c-0.17,0.03-0.41,0.05-0.7,0.07c-0.03,0-0.05,0-0.07,0c-0.3,0-0.56-0.1-0.8-0.3
		c-0.25-0.23-0.42-0.52-0.52-0.84c-0.02-0.08-0.02-0.15-0.02-0.21c0-0.19,0.06-0.36,0.19-0.52c0.16-0.22,0.37-0.34,0.63-0.35
		c0.19,0,0.32-0.06,0.4-0.19c0.11-0.19,0.17-0.73,0.19-1.64c0-0.06-0.02-0.12-0.06-0.16s-0.1-0.07-0.18-0.07h-0.84
		c-0.16,0-0.25,0.08-0.28,0.23c-0.17,1.03-0.49,1.91-0.95,2.65s-1.13,1.34-2,1.83c-0.03,0.02-0.04,0.04-0.04,0.07
		s0.03,0.05,0.06,0.05h4.5c0.56,0,1.04,0.2,1.44,0.6s0.6,0.88,0.6,1.44V18.54z M33.99,8.51c0.16,0,0.23-0.08,0.23-0.23V6.87
		c0-0.16-0.08-0.23-0.23-0.23h-1.66c-0.06,0-0.11,0.02-0.14,0.07s-0.04,0.1-0.02,0.16c0.17,0.56,0.3,1.03,0.38,1.41
		c0.02,0.16,0.1,0.23,0.26,0.23H33.99z M33.8,10.66c-0.16,0-0.23,0.08-0.23,0.23v2.27c0,0.16,0.08,0.23,0.23,0.23h0.56
		c0.16,0,0.23-0.08,0.23-0.23V10.9c0-0.16-0.08-0.23-0.23-0.23H33.8z M37.18,13.41c0.16,0,0.23-0.08,0.23-0.23V10.9
		c0-0.16-0.08-0.23-0.23-0.23h-0.61c-0.16,0-0.23,0.08-0.23,0.23v2.27c0,0.16,0.08,0.23,0.23,0.23H37.18z M40.03,20.93
		c0.27-0.3,0.59-0.5,0.96-0.61c0.17-0.06,0.35-0.09,0.54-0.09c0.17,0,0.35,0.03,0.54,0.09c0.3,0.09,0.5,0.29,0.61,0.59
		c0.03,0.11,0.05,0.21,0.05,0.3c0,0.19-0.06,0.37-0.19,0.54c-0.53,0.67-1.13,1.3-1.8,1.9C40.47,23.88,40.18,24,39.85,24
		c-0.03,0-0.05-0.01-0.07-0.02c-0.38-0.02-0.7-0.15-0.98-0.4c-0.23-0.19-0.35-0.43-0.35-0.73c0-0.34,0.13-0.62,0.4-0.82
		C39.28,21.69,39.68,21.32,40.03,20.93z M44.53,12.45c0.16,0,0.23-0.08,0.23-0.23v-0.56c0-0.16-0.08-0.23-0.23-0.23H42.5
		c-0.16,0-0.23,0.08-0.23,0.23v0.56c0,0.16,0.08,0.23,0.23,0.23H44.53z M44.53,15.19c0.16,0,0.23-0.08,0.23-0.23v-0.59
		c0-0.16-0.08-0.23-0.23-0.23H42.5c-0.16,0-0.23,0.08-0.23,0.23v0.59c0,0.16,0.08,0.23,0.23,0.23H44.53z M44.53,17.93
		c0.16,0,0.23-0.08,0.23-0.23v-0.61c0-0.16-0.08-0.23-0.23-0.23H42.5c-0.16,0-0.23,0.08-0.23,0.23v0.61c0,0.16,0.08,0.23,0.23,0.23
		H44.53z" fill="#333333" />
	<path d="M71.51,22.27c0.08,0.17,0.12,0.34,0.12,0.49c0,0.14-0.02,0.28-0.07,0.42c-0.11,0.3-0.32,0.52-0.63,0.68
		c-0.14,0.06-0.29,0.09-0.45,0.09c-0.14,0-0.27-0.02-0.4-0.07c-0.3-0.12-0.51-0.33-0.63-0.61v-0.02c-0.03-0.08-0.09-0.12-0.19-0.12
		c-1.17,0.09-2.79,0.2-4.84,0.33s-3.25,0.2-3.6,0.23c-0.11,0-0.17-0.05-0.19-0.14c0-0.02-0.01-0.02-0.02,0l-0.77,0.33
		c-0.14,0.06-0.28,0.09-0.42,0.09c-0.16,0-0.31-0.03-0.47-0.09c-0.28-0.14-0.48-0.36-0.59-0.66c-0.03-0.09-0.09-0.14-0.19-0.14
		c-0.23,0.02-2.74,0.17-7.52,0.47c-0.03,0-0.05,0-0.07,0c-0.3,0-0.56-0.1-0.8-0.3c-0.28-0.23-0.42-0.54-0.42-0.91
		c0-0.28,0.1-0.54,0.3-0.77c0.22-0.23,0.49-0.36,0.82-0.38c1.39-0.05,2.41-0.09,3.05-0.12c0.16,0,0.23-0.08,0.23-0.23v-1.24
		c0-0.16-0.08-0.23-0.23-0.23h-1.31c-0.56,0-1.04-0.2-1.44-0.6s-0.6-0.88-0.6-1.44v-1.59c0-0.56,0.2-1.04,0.6-1.44
		s0.88-0.6,1.44-0.6h1.41c0.09,0,0.14-0.05,0.14-0.14v-0.16c0-0.31,0.11-0.58,0.34-0.81s0.5-0.34,0.82-0.34s0.59,0.11,0.82,0.34
		s0.34,0.5,0.34,0.81v0.16c0,0.09,0.05,0.14,0.14,0.14h1.48c0.56,0,1.04,0.2,1.44,0.6s0.6,0.88,0.6,1.44v2.91
		c0,0.2-0.07,0.38-0.21,0.52s-0.31,0.21-0.52,0.21c-0.06,0-0.08,0.02-0.05,0.07c0.62,1.14,1.14,2.27,1.55,3.38
		c0.02,0.02,0.03,0.02,0.04,0.02s0.01-0.01,0.01-0.02c0-0.05,0-0.1,0-0.16c0-0.36,0.12-0.68,0.38-0.96
		c0.28-0.31,0.63-0.48,1.05-0.49c0.7-0.02,1.44-0.05,2.2-0.09c0.16,0,0.23-0.08,0.23-0.23v-1.29c0-0.16-0.08-0.23-0.23-0.23h-1.38
		c-0.56,0-1.04-0.2-1.44-0.6s-0.6-0.88-0.6-1.44v-1.57c0-0.56,0.2-1.04,0.6-1.44s0.88-0.6,1.44-0.6h1.45c0.11,0,0.16-0.05,0.16-0.14
		v-0.12c0-0.33,0.12-0.61,0.35-0.84s0.52-0.35,0.84-0.35s0.61,0.12,0.83,0.35s0.34,0.52,0.34,0.84v0.12c0,0.09,0.05,0.14,0.16,0.14
		h1.64c0.56,0,1.04,0.2,1.44,0.6s0.6,0.88,0.6,1.44v2.91c0,0.19-0.07,0.35-0.21,0.49s-0.3,0.21-0.49,0.21
		c-0.06,0-0.08,0.02-0.05,0.07C70.49,20.31,71.03,21.27,71.51,22.27z M52.15,12.26h-0.02c-0.31,0-0.59-0.11-0.82-0.33
		c-0.27-0.23-0.4-0.53-0.4-0.89c0-0.28,0.1-0.52,0.3-0.73c0.22-0.23,0.48-0.35,0.8-0.35c0.39,0,0.61,0,0.66,0
		c1.31,0,3.34-0.01,6.09-0.02C58.92,9.94,59,9.86,59,9.7V8.81c0-0.16-0.08-0.23-0.23-0.23h-4.52c-0.56,0-1.04-0.2-1.44-0.6
		s-0.6-0.88-0.6-1.44V5.32c0-0.56,0.2-1.04,0.6-1.44s0.88-0.6,1.44-0.6h4.62c0.09,0,0.14-0.05,0.14-0.14c0-0.34,0.12-0.63,0.36-0.87
		s0.54-0.35,0.88-0.35h0.35c0.34,0,0.63,0.12,0.87,0.35s0.35,0.52,0.35,0.87c0,0.09,0.05,0.14,0.14,0.14h4.97
		c0.56,0,1.04,0.2,1.44,0.6s0.6,0.88,0.6,1.44v1.55c0,0.47-0.17,0.87-0.5,1.21s-0.74,0.5-1.21,0.5c-0.02,0-0.03,0.02-0.05,0.05
		s-0.02,0.05,0,0.07c0.92,0.67,1.85,1.4,2.79,2.18c0.2,0.19,0.3,0.41,0.3,0.68c0,0.33-0.14,0.59-0.42,0.77
		c-0.25,0.16-0.52,0.23-0.8,0.23c-0.05,0-0.1-0.01-0.16-0.02c-0.34-0.03-0.65-0.16-0.91-0.4c-0.06-0.06-0.12-0.12-0.16-0.16
		c-0.09-0.06-0.2-0.09-0.3-0.09C62.42,12.04,57.29,12.16,52.15,12.26z M52.25,17.06c0,0.16,0.08,0.23,0.23,0.23h1.05
		c0.16,0,0.23-0.08,0.23-0.23v-1.08c0-0.16-0.08-0.23-0.23-0.23h-1.05c-0.16,0-0.23,0.08-0.23,0.23V17.06z M54.8,6.35
		c0,0.16,0.08,0.23,0.23,0.23h3.73c0.16,0,0.23-0.08,0.23-0.23V5.53c0-0.16-0.08-0.23-0.23-0.23h-3.73c-0.16,0-0.23,0.08-0.23,0.23
		V6.35z M57.57,15.98c0-0.16-0.08-0.23-0.23-0.23h-1.01c-0.16,0-0.23,0.08-0.23,0.23v1.08c0,0.16,0.08,0.23,0.23,0.23h1.01
		c0.16,0,0.23-0.08,0.23-0.23V15.98z M56.09,20.77c0,0.06,0.02,0.11,0.06,0.15s0.1,0.06,0.18,0.06l0.96-0.05
		c0.08,0,0.1-0.03,0.07-0.09c-0.12-0.22-0.14-0.45-0.06-0.68s0.25-0.4,0.48-0.49l0.61-0.23c0.02-0.02,0.02-0.03,0.02-0.05
		s-0.02-0.02-0.05-0.02h-2.04c-0.16,0-0.23,0.08-0.23,0.23V20.77z M66.17,5.53c0-0.16-0.08-0.23-0.23-0.23h-3.89
		c-0.16,0-0.23,0.08-0.23,0.23v0.82c0,0.16,0.08,0.23,0.23,0.23h3.89c0.16,0,0.23-0.08,0.23-0.23V5.53z M62.04,8.58
		c-0.16,0-0.23,0.08-0.23,0.23V9.7c0,0.16,0.08,0.23,0.23,0.23l3.16-0.05c0.02,0,0.03-0.01,0.04-0.04s0-0.04-0.01-0.06
		c-0.08-0.05-0.15-0.1-0.21-0.16c-0.17-0.12-0.25-0.3-0.25-0.52s0.11-0.38,0.32-0.47c0-0.02,0-0.03,0-0.05s-0.01-0.02-0.02-0.02
		H62.04z M62.86,17.04c0,0.16,0.08,0.23,0.23,0.23h1.1c0.16,0,0.23-0.08,0.23-0.23v-1.05c0-0.16-0.08-0.23-0.23-0.23h-1.1
		c-0.16,0-0.23,0.08-0.23,0.23V17.04z M68.44,15.98c0-0.16-0.08-0.23-0.23-0.23h-1.17c-0.16,0-0.23,0.08-0.23,0.23v1.05
		c0,0.16,0.08,0.23,0.23,0.23h1.17c0.16,0,0.23-0.08,0.23-0.23V15.98z M66.8,20.79c0,0.06,0.02,0.11,0.07,0.15S66.97,21,67.03,21
		l1.12-0.05c0.08,0,0.09-0.03,0.05-0.09c-0.12-0.22-0.15-0.45-0.08-0.69s0.22-0.42,0.46-0.53l0.49-0.23c0.02,0,0.02-0.01,0.02-0.04
		s-0.02-0.04-0.05-0.04h-2.02c-0.16,0-0.23,0.08-0.23,0.23V20.79z" fill="#333333" />
</g>
</svg>
